<svg width="348" height="349" viewBox="0 0 348 349" fill="none" xmlns="http://www.w3.org/2000/svg">
<g clip-path="url(#clip0_1_174)">
<path d="M162.433 348.508L157.288 347.937L152.324 336.813L152.193 336.799L151.026 347.243L145.99 346.687L148.07 328.082L153.425 328.675L158.244 339.437L158.353 339.452L159.484 329.354L164.52 329.911L162.441 348.516L162.433 348.508Z" fill="#323232"/>
<path d="M140.214 345.581L127.241 342.56L128.241 338.288L136.278 340.16L136.952 337.269L129.698 335.577L130.597 331.747L137.851 333.431L138.547 330.46L130.242 328.53L131.242 324.258L144.482 327.338L140.221 345.567L140.214 345.581Z" fill="#323232"/>
<path d="M122.734 341.663L117.863 339.763L119.835 328.126L119.632 328.046L112.617 337.717L107.797 335.838L109.218 323.991L109.044 323.926L102.55 333.799L97.7092 331.913L108.993 316.214L113.885 318.122L112.544 330.865L120.226 320.594L125.096 322.495L122.734 341.671V341.663Z" fill="#323232"/>
<path d="M87.94 312.144L86.9907 325.964L82.1496 322.842L83.0555 314.855L76.12 318.946L71.2789 315.823L83.5265 309.304L87.1284 303.76L91.5419 306.608L87.94 312.152V312.144Z" fill="#323232"/>
<path d="M75.2358 307.114C71.7137 311.32 66.3943 312.26 61.9881 308.595C57.6035 304.945 57.5746 299.561 61.0894 295.347C64.5898 291.162 69.9527 290.179 74.3372 293.829C78.7434 297.493 78.7434 302.922 75.2358 307.114ZM71.5398 297.175C69.4381 295.426 67.0031 296.467 65.1333 298.7C63.2273 300.977 62.691 303.493 64.7927 305.242C66.9089 307.005 69.3004 306.03 71.2064 303.753C73.0762 301.512 73.6632 298.939 71.5398 297.175Z" fill="#323232"/>
<path d="M51.3203 298.83L45.856 292.983C42.2179 289.087 42.7977 285.589 45.5226 283.059C47.3851 281.324 49.7115 280.522 52.1972 281.57L54.3424 274.61L57.763 278.267L55.7411 284.418L57.4369 286.239L61.5968 282.372L65.0536 286.073L51.3203 298.83ZM52.3204 287.193C51.1319 285.921 49.9869 286.073 49.11 286.89C48.2331 287.707 47.9939 288.834 49.1824 290.106L51.0812 292.145L54.2192 289.232L52.3204 287.193Z" fill="#323232"/>
<path d="M37.3551 283.457L34.391 279.358L40.8047 274.74L30.6587 274.19L27.1801 269.377L37.8914 270.15L41.9643 257.819L45.3559 262.503L42.6238 270.468L46.385 270.728L49.6245 268.401L52.5886 272.499L37.3696 283.449L37.3551 283.457Z" fill="#323232"/>
<path d="M29.0427 254.263C23.7378 256.829 18.9112 255.419 16.4181 250.295C14.5484 246.449 14.9542 242.322 19.5272 239.843L21.6941 244.295C19.8678 245.683 19.7736 247.216 20.4331 248.56C21.723 251.205 24.448 250.685 26.7598 249.565C29.0789 248.444 31.2313 246.688 29.9051 243.97C29.2528 242.626 27.9918 241.744 25.738 242.329L23.5711 237.877C28.3542 235.832 31.8763 238.051 33.775 241.946C36.2463 247.02 34.3693 251.675 29.0354 254.256L29.0427 254.263Z" fill="#323232"/>
<path d="M11.461 238.419L9.67822 233.685L27.2525 227.1L29.0353 231.834L11.461 238.419Z" fill="#323232"/>
<path d="M11.1712 223.949L12.5916 228.914L8.2869 230.143L4.05457 215.362L8.35936 214.133L9.77981 219.099L23.5203 215.181L24.9118 220.038L11.1712 223.956V223.949Z" fill="#323232"/>
<path d="M14.0338 202.901L3.08339 211.416L2.18474 205.734L8.75065 201.072L1.06869 198.651L0.170044 192.97L13.2148 197.719L19.759 196.692L20.5779 201.867L14.0338 202.894V202.901Z" fill="#323232"/>
<path d="M11.1639 173.302C9.79427 173.259 8.67821 172.074 8.72169 170.686C8.76518 169.32 9.95371 168.207 11.3161 168.25C12.7076 168.293 13.8236 169.479 13.7874 170.845C13.7439 172.233 12.5554 173.353 11.1639 173.302Z" fill="#323232"/>
<path d="M1.56144 147.181L2.1702 144.246L18.1211 138.182L18.1356 138.102L4.03272 135.211L4.59799 132.486L22.9839 136.259L22.3534 139.295L6.54747 145.309V145.359L20.5054 148.229L19.9401 150.954L1.5542 147.181H1.56144Z" fill="#323232"/>
<path d="M14.8599 130.137C9.12022 128.186 6.9026 123.646 8.54045 118.861C10.1638 114.105 14.7005 111.858 20.4402 113.802C26.1799 115.746 28.4193 120.3 26.7959 125.056C25.1653 129.841 20.6069 132.081 14.8672 130.13L14.8599 130.137ZM24.5058 124.29C25.6147 121.052 23.9333 117.994 19.5198 116.491C15.1063 114.987 11.9321 116.397 10.8233 119.642C9.70724 122.909 11.3595 125.952 15.7731 127.456C20.1866 128.959 23.3898 127.557 24.4986 124.29H24.5058Z" fill="#323232"/>
<path d="M12.8018 107.73L14.0701 105.107L30.8617 106.747L30.9341 106.603L19.1575 94.5536L20.4258 91.9299L34.2896 106.379L32.7822 109.508L12.8091 107.745L12.8018 107.73Z" fill="#323232"/>
<path d="M22.8247 87.8968L29.3036 77.5825L31.3691 78.8763L26.3758 86.8343L31.1444 89.8122L35.7101 82.5409L37.5943 83.719L33.0286 90.9904L38.1379 94.1851L43.2761 86.0031L45.3415 87.2969L38.7249 97.8352L22.8174 87.8968H22.8247Z" fill="#323232"/>
<path d="M32.2313 73.1371L34.3909 70.4772L50.0447 75.0814L42.2903 60.7556L44.4499 58.0957L59.0312 69.8917L57.2774 72.0529L46.5734 63.3938L46.5081 63.4733L53.6176 76.5559L52.2334 78.2617L37.913 74.0478L37.8623 74.1129L48.5663 82.772L46.8125 84.9331L32.2313 73.1443V73.1371Z" fill="#323232"/>
<path d="M48.8781 53.6289L54.0743 48.7138C56.9732 45.9744 59.5675 46.0973 61.43 48.0561C62.7926 49.4945 63.0173 51.0846 62.2201 52.6531C64.4522 51.4605 66.59 51.6918 68.3438 53.5349C70.4817 55.7828 70.5108 58.9631 67.1119 62.1868L61.7997 67.2102L48.8854 53.6289H48.8781ZM59.1618 54.3372C60.604 52.9783 60.7924 51.54 59.5894 50.2823C58.4298 49.0608 57.0021 49.1909 55.56 50.557L52.5233 53.4265L56.118 57.2067L59.1545 54.3372H59.1618ZM65.3508 60.5749C67.3945 58.6451 67.3655 56.7875 66.0756 55.4286C64.7856 54.0698 62.9665 53.983 60.9228 55.9201L57.7486 58.9197L62.1766 63.5745L65.3508 60.5749Z" fill="#323232"/>
<path d="M63.0388 40.7053L72.7137 33.2966L74.1994 35.2265L66.7349 40.9438L70.1628 45.3962L76.9896 40.1704L78.3448 41.934L71.518 47.1599L75.1923 51.9303L82.867 46.054L84.3526 47.9838L74.4603 55.5515L63.0316 40.7053H63.0388Z" fill="#323232"/>
<path d="M76.8737 30.4199L82.9034 26.7192C86.8096 24.3268 89.904 25.158 91.8028 28.2299C93.2522 30.579 93.1871 33.0292 91.1941 35.1037L98.6514 39.0357L96.2743 40.4957L89.201 36.7372L85.4544 39.0357L89.0779 44.912L86.7009 46.3721L76.8665 30.4272L76.8737 30.4199ZM87.7445 34.7712C90.049 33.3545 90.52 31.562 89.3822 29.7188C88.2154 27.8251 86.4037 27.4348 84.0919 28.8515L80.5263 31.0343L84.1788 36.954L87.7445 34.7712Z" fill="#323232"/>
<path d="M108.602 24.8327C110.435 22.2884 111.87 20.6043 110.964 18.4576C110.16 16.4988 108.348 16.1374 106.572 16.8892C104.746 17.6625 103.761 19.325 104.746 21.6379L104.891 21.9849L102.471 23.0112L102.275 22.5414C100.97 19.4623 101.891 16.3687 105.696 14.7641C109.297 13.239 112.196 14.4244 113.406 17.2867C114.725 20.3875 112.964 22.7583 111.16 25.1507C109.21 27.8323 108.37 29.6104 109.087 31.3089L109.138 31.4318L117.9 27.7239L118.791 29.82L107.188 34.7278L106.884 34.0122C105.572 30.9331 105.906 28.4973 108.602 24.8327Z" fill="#323232"/>
<path d="M118.175 21.1031L125.451 18.689L126.103 20.6405L118.827 23.0546L118.175 21.1031Z" fill="#323232"/>
<path d="M129.198 19.9539L131.676 19.3612C132.329 21.9561 134.343 22.874 136.742 22.303C138.909 21.7826 140.511 20.1924 139.974 17.959C139.496 15.9858 137.699 15.0389 134.858 15.7183L133.974 15.928L133.495 13.9547L134.249 13.774C137.199 13.0657 137.539 11.396 137.228 10.1167C136.8 8.34586 135.235 7.68088 133.307 8.14347C131.43 8.5916 130.046 9.94324 130.691 12.6465L128.212 13.2392C127.277 9.365 129.024 6.77015 132.807 5.86666C136.46 4.99208 139.032 6.40876 139.685 9.11924C140.192 11.2225 139.235 12.9645 137.626 13.8463C139.38 13.7017 141.953 14.5185 142.663 17.482C143.439 20.7056 141.322 23.604 137.177 24.5943C132.8 25.6423 130.075 23.6257 129.198 19.9612V19.9539Z" fill="#323232"/>
<path d="M160.404 13.4703C160.317 12.1114 161.39 10.8899 162.781 10.7959C164.144 10.7092 165.368 11.7789 165.463 13.1378C165.55 14.5256 164.477 15.7471 163.115 15.8338C161.723 15.9206 160.498 14.8508 160.404 13.463V13.4703Z" fill="#323232"/>
<path d="M185.494 1.50806L190.632 2.10075L195.553 13.2463L195.683 13.2607L196.886 2.81631L201.923 3.39455L199.778 21.9921L194.422 21.3777L189.646 10.6008L189.538 10.5864L188.371 20.6838L183.334 20.1056L185.479 1.50806H185.494Z" fill="#323232"/>
<path d="M207.692 4.50772L220.664 7.57238L219.649 11.8441L211.612 9.94315L210.924 12.8343L218.178 14.5473L217.272 18.3709L210.018 16.6579L209.315 19.6214L217.613 21.5802L216.598 25.8519L203.365 22.7222L207.699 4.50049L207.692 4.50772Z" fill="#323232"/>
<path d="M225.143 8.49023L230.006 10.4056L227.991 22.0354L228.187 22.1149L235.238 12.4728L240.05 14.3666L238.586 26.2132L238.76 26.2855L245.283 16.4338L250.124 18.3419L238.789 33.9977L233.905 32.0751L235.289 19.3394L227.571 29.5814L222.708 27.666L225.143 8.49746V8.49023Z" fill="#323232"/>
<path d="M259.849 38.1466L260.849 24.334L265.676 27.4781L264.741 35.4578L271.691 31.3957L276.518 34.5399L264.248 41.0161L260.632 46.5455L256.233 43.6832L259.849 38.1538V38.1466Z" fill="#323232"/>
<path d="M272.51 43.206C276.047 39.0066 281.373 38.0886 285.765 41.7749C290.135 45.4395 290.15 50.8315 286.613 55.031C283.091 59.2088 277.735 60.1628 273.358 56.4983C268.966 52.8192 268.988 47.3838 272.503 43.206H272.51ZM276.177 53.159C278.271 54.9153 280.714 53.889 282.591 51.6555C284.504 49.386 285.048 46.8706 282.953 45.1142C280.837 43.3434 278.445 44.3119 276.532 46.5815C274.655 48.8149 274.061 51.3881 276.17 53.159H276.177Z" fill="#323232"/>
<path d="M296.426 51.5906L301.868 57.4669C305.492 61.3772 304.897 64.8756 302.158 67.3981C300.288 69.1256 297.962 69.9207 295.476 68.8582L293.302 75.8115L289.896 72.1397L291.94 65.9959L290.244 64.1672L286.069 68.0197L282.627 64.3045L296.411 51.5906H296.426ZM295.382 63.2276C296.563 64.5069 297.708 64.3624 298.6 63.5456C299.484 62.7289 299.723 61.6013 298.534 60.3219L296.643 58.2764L293.49 61.1821L295.382 63.2276Z" fill="#323232"/>
<path d="M310.326 67.0222L313.275 71.1349L306.84 75.7247L316.986 76.3102L320.45 81.1384L309.746 80.3289L305.622 92.6453L302.252 87.9472L305.021 79.9892L301.259 79.7145L298.013 82.0347L295.063 77.922L310.333 67.0222H310.326Z" fill="#323232"/>
<path d="M318.515 96.2234C323.827 93.6719 328.654 95.1031 331.125 100.235C332.98 104.088 332.56 108.207 327.98 110.672L325.834 106.213C327.668 104.832 327.762 103.3 327.11 101.948C325.834 99.2953 323.102 99.8085 320.783 100.914C318.464 102.02 316.304 103.777 317.616 106.502C318.268 107.853 319.522 108.728 321.776 108.157L323.921 112.617C319.131 114.648 315.616 112.414 313.732 108.511C311.282 103.423 313.174 98.7821 318.515 96.2162V96.2234Z" fill="#323232"/>
<path d="M336.053 112.176L337.814 116.91L320.218 123.422L318.457 118.688L336.053 112.176Z" fill="#323232"/>
<path d="M336.285 126.617L334.879 121.651L339.191 120.444L343.372 135.247L339.06 136.454L337.662 131.489L323.907 135.348L322.53 130.484L336.285 126.624V126.617Z" fill="#323232"/>
<path d="M333.35 147.665L344.336 139.194L345.213 144.875L338.626 149.508L346.3 151.958L347.177 157.639L334.147 152.84L327.603 153.845L326.805 148.662L333.35 147.658V147.665Z" fill="#323232"/>
<path d="M336.096 177.227C337.466 177.271 338.582 178.456 338.539 179.844C338.495 181.21 337.307 182.323 335.944 182.28C334.553 182.236 333.437 181.051 333.473 179.685C333.516 178.297 334.705 177.184 336.096 177.227Z" fill="#323232"/>
<path d="M345.619 203.421L345.003 206.356L329.03 212.37L329.016 212.449L343.112 215.391L342.539 218.116L324.168 214.278L324.805 211.242L340.633 205.279L340.648 205.228L326.682 202.315L327.255 199.591L345.634 203.429L345.619 203.421Z" fill="#323232"/>
<path d="M332.248 220.407C337.981 222.373 340.177 226.919 338.531 231.697C336.894 236.453 332.35 238.679 326.617 236.713C320.885 234.747 318.66 230.194 320.305 225.438C321.957 220.66 326.523 218.441 332.248 220.407ZM322.588 226.218C321.472 229.456 323.139 232.514 327.545 234.032C331.951 235.55 335.133 234.147 336.249 230.917C337.372 227.657 335.734 224.599 331.321 223.089C326.907 221.571 323.711 222.966 322.581 226.226L322.588 226.218Z" fill="#323232"/>
<path d="M334.219 242.857L332.944 245.481L316.159 243.775L316.087 243.92L327.813 256.019L326.537 258.643L312.732 244.144L314.253 241.014L334.219 242.864V242.857Z" fill="#323232"/>
<path d="M324.117 262.64L317.602 272.925L315.544 271.624L320.566 263.688L315.804 260.688L311.21 267.945L309.325 266.76L313.92 259.503L308.818 256.287L303.651 264.447L301.586 263.146L308.246 252.637L324.11 262.633L324.117 262.64Z" fill="#323232"/>
<path d="M314.659 277.356L312.485 280.009L296.846 275.34L304.542 289.694L302.368 292.347L287.838 280.5L289.606 278.346L300.274 287.042L300.339 286.955L293.28 273.851L294.672 272.152L308.97 276.417L309.021 276.352L298.353 267.656L300.114 265.502L314.645 277.349L314.659 277.356Z" fill="#323232"/>
<path d="M297.94 296.807L292.73 301.7C289.823 304.432 287.229 304.295 285.366 302.329C284.004 300.89 283.787 299.293 284.591 297.725C282.359 298.903 280.221 298.671 278.474 296.821C276.344 294.566 276.322 291.386 279.743 288.176L285.069 283.167L297.94 296.792V296.807ZM281.496 289.81C279.446 291.733 279.467 293.59 280.757 294.956C282.047 296.322 283.866 296.409 285.91 294.486L289.091 291.501L284.678 286.832L281.496 289.817V289.81ZM287.664 296.069C286.222 297.428 286.026 298.859 287.222 300.124C288.381 301.353 289.809 301.223 291.251 299.864L294.295 297.002L290.708 293.207L287.664 296.069Z" fill="#323232"/>
<path d="M283.736 309.687L274.025 317.059L272.546 315.122L280.033 309.434L276.619 304.967L269.771 310.171L268.423 308.408L275.271 303.203L271.619 298.419L263.915 304.266L262.437 302.329L272.358 294.797L283.729 309.694L283.736 309.687Z" fill="#323232"/>
<path d="M269.85 319.914L263.806 323.586C259.893 325.964 256.798 325.119 254.914 322.039C253.479 319.69 253.544 317.233 255.552 315.173L248.109 311.212L250.493 309.766L257.552 313.554L261.306 311.27L257.704 305.379L260.081 303.933L269.85 319.914ZM259.001 315.52C256.69 316.929 256.218 318.715 257.342 320.565C258.501 322.459 260.313 322.856 262.625 321.454L266.198 319.286L262.567 313.351L258.994 315.52H259.001Z" fill="#323232"/>
<path d="M238.122 325.371C236.281 327.909 234.832 329.593 235.738 331.732C236.535 333.691 238.347 334.059 240.13 333.315C241.963 332.549 242.949 330.886 241.97 328.566L241.826 328.219L244.246 327.207L244.442 327.677C245.739 330.764 244.797 333.85 240.992 335.447C237.383 336.958 234.491 335.758 233.288 332.896C231.984 329.788 233.752 327.424 235.564 325.039C237.521 322.365 238.376 320.587 237.658 318.881L237.608 318.758L228.824 322.43L227.94 320.334L239.564 315.469L239.869 316.185C241.166 319.271 240.825 321.7 238.115 325.357L238.122 325.371Z" fill="#323232"/>
<path d="M228.542 329.072L221.258 331.465L220.613 329.506L227.897 327.113L228.542 329.072Z" fill="#323232"/>
<path d="M217.504 330.178L215.026 330.764C214.381 328.169 212.373 327.236 209.974 327.8C207.808 328.313 206.199 329.896 206.728 332.137C207.192 334.117 208.989 335.064 211.837 334.399L212.721 334.19L213.185 336.17L212.431 336.351C209.482 337.045 209.134 338.722 209.438 339.994C209.859 341.765 211.424 342.437 213.352 341.981C215.229 341.541 216.62 340.196 215.982 337.486L218.461 336.9C219.381 340.782 217.62 343.362 213.837 344.251C210.185 345.111 207.612 343.68 206.974 340.977C206.474 338.866 207.445 337.131 209.054 336.257C207.293 336.394 204.735 335.57 204.032 332.607C203.271 329.383 205.394 326.492 209.547 325.516C213.931 324.483 216.642 326.514 217.511 330.178H217.504Z" fill="#323232"/>
<path d="M186.255 336.546C186.342 337.905 185.255 339.126 183.863 339.213C182.501 339.3 181.276 338.216 181.196 336.857C181.109 335.469 182.196 334.247 183.559 334.168C184.95 334.081 186.175 335.158 186.255 336.546Z" fill="#323232"/>
<path d="M155.657 155.074C176.283 143.639 204.546 127.983 204.546 82.4033H170.333C170.333 107.904 157.882 114.799 139.047 125.244C118.421 136.678 90.1577 152.334 90.1577 197.914H124.371C124.371 172.413 136.815 165.518 155.657 155.074Z" fill="#FF3C00"/>
<path d="M214.874 144.6C214.874 170.101 202.43 176.996 183.588 187.44C162.962 198.875 134.699 214.531 134.699 260.11H168.912C168.912 234.61 181.363 227.715 200.205 217.27C220.831 205.836 249.095 190.18 249.095 144.6H214.881H214.874Z" fill="#FF3C00"/>
</g>
<defs>
<clipPath id="clip0_1_174">
<rect width="347" height="348" fill="white" transform="translate(0.170044 0.559814)"/>
</clipPath>
</defs>
</svg>
