<svg width="15" height="20" viewBox="0 0 15 20" fill="none" xmlns="http://www.w3.org/2000/svg">
<path d="M14.462 0.11438C14.3004 0.0296629 14.1188 -0.00924976 13.9367 0.00185485C13.7546 0.0129595 13.579 0.0736582 13.429 0.17738L0.428977 9.17738C0.296536 9.26981 0.188374 9.39286 0.113688 9.53606C0.0390014 9.67926 0 9.83837 0 9.99988C0 10.1614 0.0390014 10.3205 0.113688 10.4637C0.188374 10.6069 0.296536 10.7299 0.428977 10.8224L13.429 19.8224C13.579 19.9262 13.7546 19.987 13.9367 19.9982C14.1188 20.0093 14.3004 19.9705 14.462 19.8858C14.6237 19.8012 14.759 19.6739 14.8535 19.5178C14.9479 19.3618 14.9979 19.1828 14.998 19.0004V1.00038C14.998 0.817843 14.9481 0.638779 14.8536 0.482598C14.7591 0.326417 14.6237 0.199077 14.462 0.11438ZM12.998 17.0914L2.75498 10.0004L12.998 2.90938V17.0914Z" fill="black"/>
</svg>
