<svg width="40" height="41" viewBox="0 0 40 41" fill="none" xmlns="http://www.w3.org/2000/svg">
<g clip-path="url(#clip0_1_524)">
<path fill-rule="evenodd" clip-rule="evenodd" d="M4.11504 11.7051C4.23115 11.5887 4.36909 11.4964 4.52095 11.4333C4.67282 11.3703 4.83562 11.3379 5.00004 11.3379C5.16446 11.3379 5.32726 11.3703 5.47912 11.4333C5.63098 11.4964 5.76892 11.5887 5.88504 11.7051L20 25.8226L34.115 11.7051C34.2313 11.5889 34.3692 11.4967 34.5211 11.4338C34.6729 11.3709 34.8357 11.3385 35 11.3385C35.1644 11.3385 35.3271 11.3709 35.479 11.4338C35.6308 11.4967 35.7688 11.5889 35.885 11.7051C36.0013 11.8213 36.0934 11.9593 36.1563 12.1112C36.2192 12.263 36.2516 12.4258 36.2516 12.5901C36.2516 12.7545 36.2192 12.9172 36.1563 13.0691C36.0934 13.2209 36.0013 13.3589 35.885 13.4751L20.885 28.4751C20.7689 28.5915 20.631 28.6839 20.4791 28.7469C20.3273 28.8099 20.1645 28.8424 20 28.8424C19.8356 28.8424 19.6728 28.8099 19.521 28.7469C19.3691 28.6839 19.2312 28.5915 19.115 28.4751L4.11504 13.4751C3.99863 13.359 3.90627 13.2211 3.84326 13.0692C3.78024 12.9173 3.7478 12.7545 3.7478 12.5901C3.7478 12.4257 3.78024 12.2629 3.84326 12.111C3.90627 11.9592 3.99863 11.8212 4.11504 11.7051Z" fill="#212529"/>
</g>
<defs>
<clipPath id="clip0_1_524">
<rect width="40" height="40" fill="white" transform="translate(0 0.0898438)"/>
</clipPath>
</defs>
</svg>
