<svg width="38" height="41" viewBox="0 0 38 41" fill="none" xmlns="http://www.w3.org/2000/svg">
<path d="M37.5625 33.3125C37.5625 34.1458 37.2708 34.8542 36.6875 35.4375L32.4375 39.6875C31.8542 40.2708 31.1458 40.5625 30.3125 40.5625C29.4792 40.5625 28.7708 40.2708 28.1875 39.6875L19 30.5L9.8125 39.6875C9.22917 40.2708 8.52083 40.5625 7.6875 40.5625C6.85417 40.5625 6.14583 40.2708 5.5625 39.6875L1.3125 35.4375C0.729167 34.8542 0.4375 34.1458 0.4375 33.3125C0.4375 32.4792 0.729167 31.7708 1.3125 31.1875L10.5 22L1.3125 12.8125C0.729167 12.2292 0.4375 11.5208 0.4375 10.6875C0.4375 9.85417 0.729167 9.14583 1.3125 8.5625L5.5625 4.3125C6.14583 3.72917 6.85417 3.4375 7.6875 3.4375C8.52083 3.4375 9.22917 3.72917 9.8125 4.3125L19 13.5L28.1875 4.3125C28.7708 3.72917 29.4792 3.4375 30.3125 3.4375C31.1458 3.4375 31.8542 3.72917 32.4375 4.3125L36.6875 8.5625C37.2708 9.14583 37.5625 9.85417 37.5625 10.6875C37.5625 11.5208 37.2708 12.2292 36.6875 12.8125L27.5 22L36.6875 31.1875C37.2708 31.7708 37.5625 32.4792 37.5625 33.3125Z" fill="black"/>
</svg>
