<svg width="1600" height="1228" viewBox="0 0 1600 1228" fill="none" xmlns="http://www.w3.org/2000/svg">
<path d="M967.847 -22.124C967.847 -22.124 1092.16 -72.3696 1162.68 -56.0455C1261.24 -33.2271 1246.75 145.735 1351.31 142.038C1412.33 139.88 1455.35 44.8456 1509.99 66.7234C1571.27 91.2589 1514.32 231.091 1571.27 265.886C1618.88 294.966 1719.87 243.704 1719.87 243.704" stroke="white" stroke-opacity="0.3"/>
<path d="M-14.0279 112.715C-14.0279 112.715 222.547 102.151 373.425 146.883C584.327 209.411 621.209 406.534 834.565 441.291C959.05 461.57 1012 370.046 1132.35 415.152C1267.33 465.738 1202.46 602.769 1332.38 663.355C1440.96 713.99 1629.26 693.592 1629.26 693.592" stroke="white" stroke-opacity="0.3"/>
<path d="M-18.7986 1054.33C-18.7986 1054.33 191.073 978.579 337.829 979.707C542.97 981.284 625.54 1160.4 825.92 1134.62C942.834 1119.58 967.445 1016.98 1086.88 1026.94C1220.81 1038.1 1196.9 1187.71 1328.81 1209.87C1439.05 1228.4 1603.09 1156.59 1603.09 1156.59" stroke="white" stroke-opacity="0.3"/>
<circle cx="1429" cy="513" r="43" fill="#D9D9D9" fill-opacity="0.15"/>
<circle cx="127" cy="571" r="43" fill="#D9D9D9" fill-opacity="0.15"/>
<circle cx="198" cy="763" r="18" fill="#D9D9D9" fill-opacity="0.15"/>
<circle cx="487" cy="665" r="18" fill="#D9D9D9" fill-opacity="0.15"/>
<circle cx="1463" cy="1093" r="18" fill="#D9D9D9" fill-opacity="0.15"/>
<ellipse cx="536.5" cy="1184" rx="22.5" ry="23" fill="#D9D9D9" fill-opacity="0.15"/>
</svg>
