<svg width="49" height="49" viewBox="0 0 49 49" fill="none" xmlns="http://www.w3.org/2000/svg">
<path d="M45.0115 3.15625L36.199 1.1875C34.1365 0.71875 32.074 1.75 31.324 3.625L27.199 13.1875C26.449 14.875 26.9177 16.9375 28.4177 18.1562L32.1677 21.25C29.5427 26.125 25.4177 30.1562 20.5427 32.875L17.449 29.125C16.2302 27.625 14.1677 27.1562 12.4802 27.9062L2.91773 31.9375C1.04273 32.7812 0.0114784 34.8438 0.480228 36.9062L2.44898 45.7188C2.91773 47.6875 4.69898 49 6.66773 49C29.6365 49 48.3865 30.4375 48.3865 7.375C48.3865 5.40625 46.9802 3.625 45.0115 3.15625ZM6.85523 44.5L4.88648 36.0625L14.074 32.125L19.324 38.5C28.6052 34.0938 33.3865 29.3125 37.7927 20.0312L31.4177 14.7812L35.3552 5.59375L43.8865 7.5625C43.7927 27.9062 27.199 44.4062 6.85523 44.5Z" fill="#F7654A"/>
</svg>
