<svg width="49" height="36" viewBox="0 0 49 36" fill="none" xmlns="http://www.w3.org/2000/svg">
<path d="M44.454 0H5.45404C2.92279 0 0.954044 2.0625 0.954044 4.5V31.5C0.954044 34.0312 2.92279 36 5.45404 36H44.454C46.8915 36 48.954 34.0312 48.954 31.5V4.5C48.954 2.0625 46.8915 0 44.454 0ZM44.454 4.5V8.34375C42.2978 10.125 38.9228 12.75 31.7978 18.375C30.204 19.5938 27.1103 22.5938 24.954 22.5C22.704 22.5938 19.6103 19.5938 18.0165 18.375C10.8915 12.75 7.51654 10.125 5.45404 8.34375V4.5H44.454ZM5.45404 31.5V14.1562C7.51654 15.8438 10.6103 18.2812 15.204 21.9375C17.2665 23.5312 20.9228 27.0938 24.954 27C28.8915 27.0938 32.454 23.5312 34.6103 21.9375C39.204 18.2812 42.2978 15.8438 44.454 14.1562V31.5H5.45404Z" fill="#F7654A"/>
</svg>
