<svg width="185" height="43" viewBox="0 0 185 43" fill="none" xmlns="http://www.w3.org/2000/svg">
<mask id="mask0_27049_6632" style="mask-type:luminance" maskUnits="userSpaceOnUse" x="0" y="0" width="185" height="43">
<path d="M185 0H0V43H185V0Z" fill="white"/>
</mask>
<g mask="url(#mask0_27049_6632)">
<path d="M168.122 27.8434L170.727 17.0343C170.809 16.6735 171.053 16.4932 171.461 16.4932H171.951C172.903 16.4932 173.679 16.6041 174.277 16.8261C174.875 17.048 175.351 17.4504 175.705 18.033C176.086 18.6157 176.412 19.462 176.684 20.5718L178.269 27.9266L179.342 22.5209L179.899 20.6102C180.146 19.4932 180.559 18.6414 180.904 18.0549C181.223 17.4685 181.654 17.0636 182.198 16.8402C182.715 16.6167 183.172 16.5051 184.035 16.5051H184.663C184.984 16.5051 185.095 16.6866 184.995 17.0496L183.092 23.8708L180.805 32.4452C180.696 32.806 180.464 32.9863 180.111 32.9863H176.357C176.004 32.9863 175.772 32.806 175.664 32.4452L173.093 22.5696L170.605 32.4452C170.578 32.806 170.374 32.9863 169.993 32.9863H166.117C165.763 32.9863 165.519 32.806 165.382 32.4452L160.894 17.0343C160.786 16.6735 160.908 16.4932 161.261 16.4932H161.955C162.907 16.4932 163.669 16.6041 164.24 16.8261C164.838 17.048 165.315 17.4504 165.668 18.033C166.049 18.6157 166.375 19.462 166.647 20.5718L168.122 27.8434Z" fill="white"/>
<path fill-rule="evenodd" clip-rule="evenodd" d="M139.789 30.7354C141.284 32.236 143.271 32.9863 146.911 32.9863H150.408C154.077 32.9863 156.048 32.236 157.49 30.7354C158.932 29.2075 159.653 27.2022 159.653 24.7192C159.653 22.2364 158.918 20.2446 157.449 18.7441C155.997 17.2599 154.038 16.5097 150.408 16.4934L146.83 16.4932C143.123 16.4932 141.217 17.2435 139.748 18.7441C138.306 20.2446 137.585 22.2364 137.585 24.7192C137.585 27.2022 138.32 29.2075 139.789 30.7354ZM146.87 20.9541C144.862 20.9541 144.1 21.2406 143.42 21.8135C142.74 22.3865 142.4 23.3824 142.4 24.8011C142.4 26.2472 142.726 27.243 143.379 27.7887C144.059 28.3071 144.821 28.5663 146.83 28.5663H150.327C152.335 28.5663 153.098 28.3071 153.777 27.7887C154.457 27.243 154.797 26.2472 154.797 24.8011C154.797 23.3824 154.457 22.3865 153.777 21.8135C153.125 21.2406 152.376 20.9541 150.368 20.9541H146.87Z" fill="white"/>
<path d="M134.66 24.5016H134.671V10.5513C134.671 10.1929 134.494 10.0137 134.141 10.0137H133.937C132.658 10.0137 131.693 10.317 131.04 10.9236C130.36 11.5302 130.02 12.578 130.02 14.067V21.5118H130.008V32.4486C130.008 32.8071 130.185 32.9863 130.539 32.9863H130.743C132.022 32.9863 132.987 32.6829 133.64 32.0763C134.319 31.4697 134.66 30.4219 134.66 28.933V24.5016Z" fill="white"/>
<path d="M127.607 10.0137C128.042 10.0137 128.26 10.2478 128.26 10.7161C128.26 13.024 126.142 14.5172 124.238 14.5172L115.618 14.5174V19.3927H126.663C127.099 19.3927 127.315 19.6269 127.315 20.0952C127.315 22.409 125.198 23.8551 123.294 23.8551H115.618V30.0882C115.618 31.5578 114.423 32.9863 112.756 32.9863H111.375C111.021 32.9863 110.844 32.8072 110.844 32.4492V10.5508C110.844 10.1927 111.021 10.0137 111.375 10.0137L127.607 10.0137Z" fill="white"/>
<path d="M90.6603 19.0975C90.6603 19.0973 90.6603 19.0978 90.6603 19.0975C92.4487 16.5094 97.2296 16.4347 99.0351 16.5096C101.192 16.599 103.465 16.8653 105.388 18.5586C107.007 19.9837 107.295 21.5298 107.295 23.9897V32.4473C107.295 32.8066 107.118 32.9863 106.765 32.9863H103.133C102.78 32.9863 102.603 32.8066 102.603 32.4473V24.4873C102.603 23.2157 102.312 22.4913 101.705 21.8753C101.379 21.5437 99.9093 20.419 96.7745 20.419C94.4305 20.419 92.5313 21.287 91.9601 21.7568C91.3889 22.2267 90.9867 23.202 90.9867 24.4458V32.4473C90.9867 32.8066 90.8098 32.9863 90.4563 32.9863H86.8659C86.5122 32.9863 86.3354 32.8066 86.3354 32.4473V17.6879C86.3354 17.3286 86.5122 17.149 86.8659 17.149H87.0699C88.0218 17.149 88.7835 17.301 89.3547 17.605C89.953 17.8814 90.3882 18.3789 90.6603 19.0975Z" fill="white"/>
<path d="M82.8617 17.0265V28.5788V28.9656C82.8617 30.4426 82.5217 31.482 81.8417 32.0837C81.1889 32.6854 80.2233 32.9863 78.9449 32.9863H78.7409C78.3873 32.9863 78.2104 32.8085 78.2104 32.453V22.5859V20.5138C78.2104 19.0369 78.5505 17.9976 79.2305 17.3958C79.8833 16.794 80.8489 16.4932 82.1273 16.4932H82.3313C82.685 16.4932 82.8617 16.6709 82.8617 17.0265Z" fill="white"/>
<path d="M75.7325 10.0137C76.1677 10.0137 76.3853 10.2478 76.3853 10.7161C76.3853 13.024 74.2676 14.5172 72.3635 14.5172L63.7434 14.5174V19.3927H74.7886C75.2237 19.3927 75.4414 19.6269 75.4414 20.0952C75.4414 22.409 73.3236 23.8551 71.4196 23.8551H63.7434V30.0882C63.7434 31.5578 62.5481 32.9863 60.8815 32.9863H59.5001C59.1464 32.9863 58.9697 32.8072 58.9697 32.4492V10.5508C58.9697 10.1927 59.1464 10.0137 59.5001 10.0137L75.7325 10.0137Z" fill="white"/>
<path d="M32.6208 0H9.92807C4.44495 0 0 4.49208 0 10.0333V32.9667C0 38.5079 4.44495 43 9.92807 43H32.6208C38.1039 43 42.5488 38.5079 42.5488 32.9667V10.0333C42.5488 4.49208 38.1039 0 32.6208 0Z" fill="#38A765"/>
<path d="M32.6208 0H9.92807C4.44495 0 0 4.49208 0 10.0333V32.9667C0 38.5079 4.44495 43 9.92807 43H32.6208C38.1039 43 42.5488 38.5079 42.5488 32.9667V10.0333C42.5488 4.49208 38.1039 0 32.6208 0Z" fill="url(#paint0_linear_27049_6632)" fill-opacity="0.5"/>
<path d="M32.6208 0H9.92807C4.44495 0 0 4.49208 0 10.0333V32.9667C0 38.5079 4.44495 43 9.92807 43H32.6208C38.1039 43 42.5488 38.5079 42.5488 32.9667V10.0333C42.5488 4.49208 38.1039 0 32.6208 0Z" fill="#38A765"/>
<path d="M25.5534 15.684H30.7797C33.2243 15.684 35.507 14.4032 36.8631 12.3468L37.3419 11.6257C37.6686 11.1336 37.832 10.8876 37.8205 10.6834C37.8105 10.5056 37.724 10.3411 37.5839 10.2334C37.423 10.1099 37.1303 10.1099 36.5448 10.1099H24.1606C21.4528 10.1099 18.9666 11.6077 17.6993 14.027L11.6284 25.617L8.68789 31.2165C8.03519 32.2267 6.91051 32.9006 5.62988 32.913H7.80508H10.2007C12.9482 32.913 15.4639 31.3405 16.7129 28.8664L22.4709 17.4575C23.0947 16.3891 24.2403 15.6971 25.5534 15.684Z" fill="white"/>
<g opacity="0.3">
<path style="mix-blend-mode:darken" d="M11.6284 25.6174L8.68754 31.2176C8.03479 32.2274 6.9103 32.9011 5.62988 32.9134H10.2007C12.9483 32.9134 15.4639 31.3407 16.713 28.8667L18.3533 25.6174L22.4707 17.4408C23.0945 16.3721 24.2403 15.652 25.5534 15.6389V15.6387H19.0097C17.7653 15.6387 16.6675 16.2737 16.0161 17.2406L11.6284 25.6174Z" fill="url(#paint1_linear_27049_6632)"/>
</g>
<path d="M9.41782 23.5253C10.6111 21.2472 12.8852 19.8011 15.4075 19.6367H32.0884C32.6756 19.6367 32.9691 19.6367 33.1302 19.7607C33.2703 19.8686 33.3567 20.0334 33.3664 20.2115C33.3774 20.4159 33.2129 20.6622 32.8839 21.1549L32.4228 21.8452C31.0669 23.9014 28.784 25.1095 26.3395 25.1095H14.8985C13.5855 25.1226 12.4397 25.8701 11.8159 26.9387L10.847 28.8816C9.12253 32.3586 9.57437 32.913 6.01559 32.913H5.92298C5.39739 32.913 5.13465 32.913 4.97865 32.801C4.84247 32.7032 4.75266 32.5524 4.73075 32.3847C4.70568 32.1927 4.82822 31.9572 5.07332 31.4863L7.54286 26.7415L8.21627 25.4535L9.41782 23.5253Z" fill="white"/>
<path opacity="0.3" d="M9.41782 23.5253C10.6111 21.2472 12.8852 19.8011 15.4075 19.6367H32.0884C32.6756 19.6367 32.9691 19.6367 33.1302 19.7607C33.2703 19.8686 33.3567 20.0334 33.3664 20.2115C33.3774 20.4159 33.2129 20.6622 32.8839 21.1549L32.4228 21.8452C31.0669 23.9014 28.784 25.1095 26.3395 25.1095H14.8985C13.5855 25.1226 12.4397 25.8701 11.8159 26.9387L10.847 28.8816C9.12253 32.3586 9.57437 32.913 6.01559 32.913H5.92298C5.39739 32.913 5.13465 32.913 4.97865 32.801C4.84247 32.7032 4.75266 32.5524 4.73075 32.3847C4.70568 32.1927 4.82822 31.9572 5.07332 31.4863L7.54286 26.7415L8.21627 25.4535L9.41782 23.5253Z" fill="url(#paint2_linear_27049_6632)"/>
<path style="mix-blend-mode:darken" opacity="0.2" d="M5.67734 32.9124C5.66154 32.9128 5.64572 32.913 5.62988 32.9131H10.2007C12.9483 32.9131 15.4639 31.3405 16.713 28.8664L18.3533 25.6171L18.609 25.1094H14.8986C13.5855 25.1225 12.4397 25.8699 11.8159 26.9386L10.847 28.8815C10.5621 29.4561 10.3365 29.9509 10.1425 30.3766C9.16237 32.5266 8.98629 32.9129 6.01562 32.9129H5.923C5.8338 32.9129 5.75217 32.9129 5.67734 32.9124Z" fill="url(#paint3_linear_27049_6632)"/>
</g>
<defs>
<linearGradient id="paint0_linear_27049_6632" x1="21.2744" y1="0" x2="21.2744" y2="43" gradientUnits="userSpaceOnUse">
<stop stop-color="white"/>
<stop offset="0.743632" stop-color="white" stop-opacity="0"/>
</linearGradient>
<linearGradient id="paint1_linear_27049_6632" x1="15.5916" y1="14.1202" x2="15.5916" y2="19.9411" gradientUnits="userSpaceOnUse">
<stop stop-color="#577F84"/>
<stop offset="1" stop-color="#577F84" stop-opacity="0"/>
</linearGradient>
<linearGradient id="paint2_linear_27049_6632" x1="30.7263" y1="20.7389" x2="11.4979" y2="26.1518" gradientUnits="userSpaceOnUse">
<stop stop-color="#41B36F"/>
<stop offset="0.0666667" stop-color="#41B36F" stop-opacity="0.991353"/>
<stop offset="0.133333" stop-color="#41B36F" stop-opacity="0.96449"/>
<stop offset="0.2" stop-color="#41B36F" stop-opacity="0.91834"/>
<stop offset="0.266667" stop-color="#41B36F" stop-opacity="0.852589"/>
<stop offset="0.333333" stop-color="#41B36F" stop-opacity="0.768225"/>
<stop offset="0.4" stop-color="#41B36F" stop-opacity="0.668116"/>
<stop offset="0.466667" stop-color="#41B36F" stop-opacity="0.557309"/>
<stop offset="0.533333" stop-color="#41B36F" stop-opacity="0.442691"/>
<stop offset="0.6" stop-color="#41B36F" stop-opacity="0.331884"/>
<stop offset="0.666667" stop-color="#41B36F" stop-opacity="0.231775"/>
<stop offset="0.733333" stop-color="#41B36F" stop-opacity="0.147411"/>
<stop offset="0.8" stop-color="#41B36F" stop-opacity="0.0816599"/>
<stop offset="0.866667" stop-color="#41B36F" stop-opacity="0.03551"/>
<stop offset="0.933333" stop-color="#41B36F" stop-opacity="0.01"/>
<stop offset="1" stop-color="#41B36F" stop-opacity="0"/>
</linearGradient>
<linearGradient id="paint3_linear_27049_6632" x1="15.5916" y1="25.0783" x2="15.5916" y2="28.1044" gradientUnits="userSpaceOnUse">
<stop stop-color="#577F84"/>
<stop offset="1" stop-color="#577F84" stop-opacity="0"/>
</linearGradient>
</defs>
</svg>
