<svg width="37" height="49" viewBox="0 0 37 49" fill="none" xmlns="http://www.w3.org/2000/svg">
<path d="M18.6027 0C8.57148 0 0.602726 8.15625 0.602726 18C0.602726 24.75 2.75898 26.8125 14.759 45.9375C16.5402 48.75 20.5715 48.75 22.3527 45.9375C34.3527 26.8125 36.6027 24.75 36.6027 18C36.6027 8.0625 28.4465 0 18.6027 0ZM18.6027 43.5C6.60273 24.375 5.10273 23.1562 5.10273 18C5.10273 10.5938 11.1027 4.5 18.6027 4.5C26.009 4.5 32.1027 10.5938 32.1027 18C32.1027 23.1562 30.6027 24.1875 18.6027 43.5ZM11.1027 18C11.1027 22.2188 14.384 25.5 18.6027 25.5C22.7277 25.5 26.1027 22.2188 26.1027 18C26.1027 13.875 22.7277 10.5 18.6027 10.5C14.384 10.5 11.1027 13.875 11.1027 18Z" fill="#F7654A"/>
</svg>
