<svg width="48" height="48" viewBox="0 0 48 48" fill="none" xmlns="http://www.w3.org/2000/svg">
<path d="M24.1703 0.75C11.3265 0.75 0.920261 11.1562 0.920261 24C0.920261 36.8438 11.3265 47.25 24.1703 47.25C37.014 47.25 47.4203 36.8438 47.4203 24C47.4203 11.1562 37.014 0.75 24.1703 0.75ZM24.1703 42.75C13.764 42.75 5.42026 34.4062 5.42026 24C5.42026 13.6875 13.764 5.25 24.1703 5.25C34.4828 5.25 42.9203 13.6875 42.9203 24C42.9203 34.4062 34.4828 42.75 24.1703 42.75ZM29.889 33C30.4515 33.375 31.1078 33.2812 31.4828 32.7188L33.264 30.375C33.639 29.8125 33.5453 29.1562 32.9828 28.7812L26.7953 24.1875V10.875C26.7953 10.3125 26.2328 9.75 25.6703 9.75H22.6703C22.014 9.75 21.5453 10.3125 21.5453 10.875V26.3438C21.5453 26.625 21.639 27 21.9203 27.1875L29.889 33Z" fill="#F7654A"/>
</svg>
