<svg width="274" height="161" viewBox="0 0 274 161" fill="none" xmlns="http://www.w3.org/2000/svg">
<mask id="path-1-inside-1_1_255" fill="white">
<path d="M0 5.55981H270V155.56H0V5.55981Z"/>
</mask>
<path d="M269 5.55981V155.56H271V5.55981H269Z" fill="#EAEAEA" mask="url(#path-1-inside-1_1_255)"/>
<path d="M76.8811 105.62V55.0162H80.1229V105.62H76.8811ZM85.4798 71.7194C85.3216 70.1249 84.6429 68.8861 83.4437 68.0032C82.2445 67.1203 80.6171 66.6788 78.5613 66.6788C77.1644 66.6788 75.985 66.8765 75.023 67.2718C74.061 67.654 73.323 68.1877 72.8091 68.873C72.3083 69.5582 72.0579 70.3357 72.0579 71.2055C72.0316 71.9303 72.1831 72.5628 72.5126 73.1031C72.8552 73.6434 73.323 74.1112 73.916 74.5066C74.509 74.8887 75.1943 75.2248 75.9718 75.5147C76.7493 75.7914 77.5795 76.0286 78.4624 76.2263L82.0996 77.0961C83.8654 77.4914 85.4863 78.0185 86.9623 78.6774C88.4382 79.3363 89.7165 80.1468 90.7971 81.1088C91.8777 82.0708 92.7145 83.2041 93.3075 84.5087C93.9137 85.8133 94.2234 87.309 94.2366 88.9958C94.2234 91.4733 93.5908 93.6213 92.3389 95.4399C91.1002 97.2453 89.308 98.6488 86.9623 99.6503C84.6298 100.639 81.8163 101.133 78.5217 101.133C75.2536 101.133 72.4071 100.632 69.9824 99.6305C67.5708 98.629 65.6863 97.1465 64.329 95.1829C62.9848 93.2062 62.2798 90.7617 62.2139 87.8493H70.4963C70.5886 89.2067 70.9773 90.34 71.6626 91.2493C72.361 92.1454 73.2901 92.8241 74.4497 93.2853C75.6226 93.7333 76.947 93.9574 78.4229 93.9574C79.8725 93.9574 81.131 93.7465 82.1984 93.3248C83.279 92.9031 84.1158 92.3167 84.7088 91.5656C85.3018 90.8144 85.5984 89.9512 85.5984 88.9761C85.5984 88.0668 85.3282 87.3025 84.7879 86.6831C84.2608 86.0637 83.4833 85.5366 82.4554 85.1017C81.4407 84.6668 80.1954 84.2715 78.7194 83.9157L74.3114 82.8087C70.8982 81.9785 68.2033 80.6805 66.2266 78.9146C64.2499 77.1488 63.2682 74.7701 63.2813 71.7787C63.2682 69.3276 63.9205 67.1862 65.2383 65.3544C66.5693 63.5227 68.3944 62.0929 70.7138 61.065C73.0331 60.0371 75.6687 59.5231 78.6206 59.5231C81.6252 59.5231 84.2476 60.0371 86.4879 61.065C88.7413 62.0929 90.494 63.5227 91.7459 65.3544C92.9978 67.1862 93.6435 69.3078 93.6831 71.7194H85.4798ZM114.72 101.113C111.768 101.113 109.139 100.606 106.833 99.591C104.54 98.5631 102.728 97.153 101.397 95.3608C100.079 93.5554 99.4007 91.4733 99.3612 89.1144H107.98C108.032 90.1028 108.355 90.9725 108.948 91.7237C109.554 92.4617 110.358 93.0349 111.36 93.4434C112.361 93.8519 113.488 94.0562 114.74 94.0562C116.045 94.0562 117.198 93.8256 118.199 93.3644C119.201 92.9031 119.985 92.264 120.551 91.447C121.118 90.6299 121.401 89.6877 121.401 88.6203C121.401 87.5397 121.098 86.5843 120.492 85.754C119.899 84.9106 119.043 84.2517 117.922 83.7773C116.815 83.3029 115.498 83.0657 113.969 83.0657H110.194V76.7798H113.969C115.26 76.7798 116.4 76.5558 117.389 76.1077C118.39 75.6597 119.168 75.0403 119.721 74.2496C120.275 73.4457 120.551 72.5101 120.551 71.4427C120.551 70.428 120.308 69.5385 119.82 68.7741C119.346 67.9966 118.674 67.3904 117.804 66.9556C116.947 66.5207 115.946 66.3032 114.799 66.3032C113.64 66.3032 112.579 66.5141 111.617 66.9358C110.655 67.3443 109.884 67.9307 109.304 68.6951C108.724 69.4594 108.414 70.3555 108.375 71.3834H100.172C100.211 69.0509 100.877 66.9951 102.168 65.2161C103.46 63.437 105.199 62.0467 107.387 61.0452C109.587 60.0305 112.071 59.5231 114.839 59.5231C117.633 59.5231 120.077 60.0305 122.172 61.0452C124.268 62.0599 125.895 63.4304 127.055 65.1568C128.228 66.8699 128.808 68.7939 128.794 70.9287C128.808 73.1954 128.102 75.0864 126.679 76.6019C125.269 78.1174 123.431 79.0794 121.164 79.4879V79.8041C124.142 80.1863 126.409 81.2208 127.964 82.9076C129.532 84.5812 130.31 86.6765 130.297 89.1935C130.31 91.4997 129.644 93.5489 128.3 95.3411C126.969 97.1333 125.131 98.5433 122.785 99.5712C120.439 100.599 117.751 101.113 114.72 101.113ZM151.097 59.5231C153.179 59.5231 155.182 59.8724 157.106 60.5708C159.043 61.2692 160.769 62.3828 162.285 63.9114C163.813 65.4401 165.019 67.4695 165.902 69.9997C166.798 72.5167 167.253 75.6069 167.266 79.2704C167.266 82.7099 166.877 85.7804 166.1 88.4819C165.335 91.1702 164.235 93.4566 162.799 95.3411C161.362 97.2255 159.629 98.6619 157.6 99.6503C155.57 100.625 153.304 101.113 150.8 101.113C148.099 101.113 145.713 100.593 143.644 99.5514C141.575 98.4972 139.908 97.0674 138.643 95.262C137.391 93.4434 136.634 91.4008 136.37 89.1342H144.811C145.14 90.6101 145.832 91.7566 146.886 92.5737C147.94 93.3775 149.245 93.7795 150.8 93.7795C153.436 93.7795 155.439 92.633 156.809 90.34C158.18 88.0338 158.872 84.8777 158.885 80.8716H158.608C158.002 82.0576 157.185 83.0789 156.157 83.9355C155.129 84.7789 153.95 85.4312 152.619 85.8924C151.301 86.3536 149.897 86.5843 148.408 86.5843C146.023 86.5843 143.895 86.0242 142.023 84.9041C140.152 83.7839 138.676 82.2421 137.596 80.2786C136.515 78.315 135.975 76.0748 135.975 73.5578C135.962 70.8431 136.588 68.4249 137.853 66.3032C139.118 64.1816 140.884 62.5211 143.15 61.3219C145.43 60.1096 148.079 59.51 151.097 59.5231ZM151.156 66.2439C149.825 66.2439 148.639 66.5602 147.598 67.1928C146.57 67.8253 145.753 68.6753 145.147 69.7427C144.554 70.8101 144.264 72.0027 144.277 73.3206C144.277 74.6515 144.567 75.8507 145.147 76.9182C145.74 77.9724 146.544 78.8158 147.558 79.4483C148.586 80.0677 149.759 80.3774 151.077 80.3774C152.065 80.3774 152.981 80.1929 153.824 79.8239C154.668 79.4549 155.399 78.9476 156.019 78.3019C156.651 77.6429 157.145 76.8852 157.501 76.0286C157.857 75.1721 158.035 74.2628 158.035 73.3008C158.022 72.0225 157.718 70.8497 157.125 69.7822C156.532 68.7148 155.715 67.8583 154.674 67.2125C153.633 66.5668 152.46 66.2439 151.156 66.2439ZM187.844 59.5231C189.926 59.5231 191.929 59.8724 193.853 60.5708C195.79 61.2692 197.516 62.3828 199.032 63.9114C200.56 65.4401 201.766 67.4695 202.649 69.9997C203.545 72.5167 204 75.6069 204.013 79.2704C204.013 82.7099 203.624 85.7804 202.847 88.4819C202.082 91.1702 200.982 93.4566 199.546 95.3411C198.109 97.2255 196.376 98.6619 194.347 99.6503C192.317 100.625 190.051 101.113 187.547 101.113C184.846 101.113 182.46 100.593 180.391 99.5514C178.322 98.4972 176.655 97.0674 175.39 95.262C174.138 93.4434 173.381 91.4008 173.117 89.1342H181.558C181.887 90.6101 182.579 91.7566 183.633 92.5737C184.687 93.3775 185.992 93.7795 187.547 93.7795C190.183 93.7795 192.186 92.633 193.556 90.34C194.927 88.0338 195.619 84.8777 195.632 80.8716H195.355C194.749 82.0576 193.932 83.0789 192.904 83.9355C191.876 84.7789 190.697 85.4312 189.366 85.8924C188.048 86.3536 186.644 86.5843 185.155 86.5843C182.77 86.5843 180.642 86.0242 178.77 84.9041C176.899 83.7839 175.423 82.2421 174.343 80.2786C173.262 78.315 172.722 76.0748 172.722 73.5578C172.709 70.8431 173.334 68.4249 174.6 66.3032C175.865 64.1816 177.631 62.5211 179.897 61.3219C182.177 60.1096 184.826 59.51 187.844 59.5231ZM187.903 66.2439C186.572 66.2439 185.386 66.5602 184.345 67.1928C183.317 67.8253 182.5 68.6753 181.894 69.7427C181.301 70.8101 181.011 72.0027 181.024 73.3206C181.024 74.6515 181.314 75.8507 181.894 76.9182C182.487 77.9724 183.29 78.8158 184.305 79.4483C185.333 80.0677 186.506 80.3774 187.824 80.3774C188.812 80.3774 189.728 80.1929 190.571 79.8239C191.415 79.4549 192.146 78.9476 192.766 78.3019C193.398 77.6429 193.892 76.8852 194.248 76.0286C194.604 75.1721 194.782 74.2628 194.782 73.3008C194.769 72.0225 194.465 70.8497 193.872 69.7822C193.279 68.7148 192.462 67.8583 191.421 67.2125C190.38 66.5668 189.207 66.2439 187.903 66.2439Z" fill="#212529"/>
<rect x="265" y="151.56" width="9" height="9" rx="4.5" fill="#EAEAEA"/>
<rect x="265" y="0.559814" width="9" height="9" rx="4.5" fill="#EAEAEA"/>
</svg>
