<svg width="15" height="20" viewBox="0 0 15 20" fill="none" xmlns="http://www.w3.org/2000/svg">
<path d="M0.536009 19.8856C0.697563 19.9703 0.879212 20.0092 1.06129 19.9981C1.24337 19.987 1.41895 19.9263 1.56901 19.8226L14.569 10.8226C14.7015 10.7302 14.8096 10.6071 14.8843 10.4639C14.959 10.3207 14.998 10.1616 14.998 10.0001C14.998 9.83861 14.959 9.6795 14.8843 9.5363C14.8096 9.3931 14.7015 9.27005 14.569 9.17762L1.56901 0.17762C1.41898 0.0738125 1.24342 0.0130247 1.06132 0.00183868C0.879228 -0.00934731 0.697542 0.0294944 0.535938 0.114159C0.374335 0.198823 0.238973 0.326084 0.144506 0.482161C0.0500404 0.638237 7.11065e-05 0.817182 9.53674e-06 0.99962L9.53674e-06 18.9996C-2.05442e-05 19.1822 0.0499135 19.3612 0.144398 19.5174C0.238882 19.6736 0.374311 19.8009 0.536009 19.8856ZM2.00001 2.90862L12.243 9.99962L2.00001 17.0906L2.00001 2.90862Z" fill="black"/>
</svg>
